<mxfile host="app.diagrams.net" modified="2023-09-04T21:29:17.370Z" agent="Mozilla/5.0 (Windows NT 10.0; Win64; x64) AppleWebKit/537.36 (KHTML, like Gecko) Chrome/116.0.0.0 Safari/537.36" etag="kTNz_KvJZ7jK6V-Bf-CG" version="21.7.2" type="google">
  <diagram name="Page-1" id="H99M9K0FI-GMeRv-k8cv">
    <mxGraphModel grid="1" page="1" gridSize="10" guides="1" tooltips="1" connect="1" arrows="1" fold="1" pageScale="1" pageWidth="850" pageHeight="1100" math="0" shadow="0">
      <root>
        <mxCell id="0" />
        <mxCell id="1" parent="0" />
        <mxCell id="DLvYoD4pX-AET4cQzhbd-1" value="&lt;font style=&quot;font-size: 28px;&quot;&gt;&lt;b&gt;USER&lt;/b&gt;&lt;/font&gt;" style="rounded=0;whiteSpace=wrap;html=1;" vertex="1" parent="1">
          <mxGeometry x="110" y="280" width="120" height="60" as="geometry" />
        </mxCell>
        <mxCell id="DLvYoD4pX-AET4cQzhbd-2" value="&lt;font style=&quot;font-size: 21px;&quot;&gt;&lt;b&gt;CONTACT&lt;/b&gt;&lt;/font&gt;" style="rounded=0;whiteSpace=wrap;html=1;" vertex="1" parent="1">
          <mxGeometry x="680" y="280" width="120" height="60" as="geometry" />
        </mxCell>
        <mxCell id="DLvYoD4pX-AET4cQzhbd-3" value="&lt;font style=&quot;font-size: 16px;&quot;&gt;&lt;u&gt;Id&lt;/u&gt;&lt;/font&gt;" style="ellipse;whiteSpace=wrap;html=1;" vertex="1" parent="1">
          <mxGeometry x="-70" y="130" width="100" height="70" as="geometry" />
        </mxCell>
        <mxCell id="DLvYoD4pX-AET4cQzhbd-4" value="&lt;font style=&quot;font-size: 16px;&quot;&gt;UserName&lt;/font&gt;" style="ellipse;whiteSpace=wrap;html=1;" vertex="1" parent="1">
          <mxGeometry x="15" y="70" width="100" height="70" as="geometry" />
        </mxCell>
        <mxCell id="DLvYoD4pX-AET4cQzhbd-5" value="&lt;font style=&quot;font-size: 16px;&quot;&gt;UserEmail&lt;/font&gt;" style="ellipse;whiteSpace=wrap;html=1;" vertex="1" parent="1">
          <mxGeometry x="130" y="30" width="100" height="70" as="geometry" />
        </mxCell>
        <mxCell id="DLvYoD4pX-AET4cQzhbd-6" value="&lt;font style=&quot;font-size: 16px;&quot;&gt;Password&lt;/font&gt;" style="ellipse;whiteSpace=wrap;html=1;" vertex="1" parent="1">
          <mxGeometry x="230" y="80" width="120" height="70" as="geometry" />
        </mxCell>
        <mxCell id="DLvYoD4pX-AET4cQzhbd-7" value="&lt;font style=&quot;font-size: 16px;&quot;&gt;Image&lt;/font&gt;" style="ellipse;whiteSpace=wrap;html=1;" vertex="1" parent="1">
          <mxGeometry x="280" y="160" width="115" height="60" as="geometry" />
        </mxCell>
        <mxCell id="DLvYoD4pX-AET4cQzhbd-8" value="&lt;span style=&quot;font-size: 17px;&quot;&gt;About&lt;/span&gt;" style="ellipse;whiteSpace=wrap;html=1;" vertex="1" parent="1">
          <mxGeometry x="255" y="240" width="120" height="60" as="geometry" />
        </mxCell>
        <mxCell id="DLvYoD4pX-AET4cQzhbd-9" value="&lt;font style=&quot;font-size: 16px;&quot;&gt;Role&lt;/font&gt;" style="ellipse;whiteSpace=wrap;html=1;" vertex="1" parent="1">
          <mxGeometry x="-110" y="210" width="110" height="50" as="geometry" />
        </mxCell>
        <mxCell id="DLvYoD4pX-AET4cQzhbd-10" value="&lt;font style=&quot;font-size: 16px;&quot;&gt;Enabled&lt;/font&gt;" style="ellipse;whiteSpace=wrap;html=1;" vertex="1" parent="1">
          <mxGeometry x="-40" y="260" width="110" height="60" as="geometry" />
        </mxCell>
        <mxCell id="DLvYoD4pX-AET4cQzhbd-13" value="" style="endArrow=none;html=1;rounded=0;entryX=0.436;entryY=1.006;entryDx=0;entryDy=0;entryPerimeter=0;" edge="1" parent="1" source="DLvYoD4pX-AET4cQzhbd-6" target="DLvYoD4pX-AET4cQzhbd-5">
          <mxGeometry width="50" height="50" relative="1" as="geometry">
            <mxPoint x="400" y="290" as="sourcePoint" />
            <mxPoint x="450" y="240" as="targetPoint" />
            <Array as="points">
              <mxPoint x="170" y="280" />
            </Array>
          </mxGeometry>
        </mxCell>
        <mxCell id="DLvYoD4pX-AET4cQzhbd-14" value="" style="endArrow=none;html=1;rounded=0;exitX=0.5;exitY=0;exitDx=0;exitDy=0;entryX=0.69;entryY=0.994;entryDx=0;entryDy=0;entryPerimeter=0;" edge="1" parent="1" source="DLvYoD4pX-AET4cQzhbd-1" target="DLvYoD4pX-AET4cQzhbd-4">
          <mxGeometry width="50" height="50" relative="1" as="geometry">
            <mxPoint x="400" y="290" as="sourcePoint" />
            <mxPoint x="450" y="240" as="targetPoint" />
          </mxGeometry>
        </mxCell>
        <mxCell id="DLvYoD4pX-AET4cQzhbd-15" value="" style="endArrow=none;html=1;rounded=0;entryX=0.924;entryY=0.846;entryDx=0;entryDy=0;entryPerimeter=0;" edge="1" parent="1" target="DLvYoD4pX-AET4cQzhbd-3">
          <mxGeometry width="50" height="50" relative="1" as="geometry">
            <mxPoint x="170" y="280" as="sourcePoint" />
            <mxPoint x="450" y="240" as="targetPoint" />
          </mxGeometry>
        </mxCell>
        <mxCell id="DLvYoD4pX-AET4cQzhbd-16" value="" style="endArrow=none;html=1;rounded=0;exitX=0.5;exitY=0;exitDx=0;exitDy=0;" edge="1" parent="1" source="DLvYoD4pX-AET4cQzhbd-1" target="DLvYoD4pX-AET4cQzhbd-9">
          <mxGeometry width="50" height="50" relative="1" as="geometry">
            <mxPoint x="400" y="290" as="sourcePoint" />
            <mxPoint x="450" y="240" as="targetPoint" />
          </mxGeometry>
        </mxCell>
        <mxCell id="DLvYoD4pX-AET4cQzhbd-17" value="" style="endArrow=none;html=1;rounded=0;exitX=0.5;exitY=0;exitDx=0;exitDy=0;" edge="1" parent="1" source="DLvYoD4pX-AET4cQzhbd-1" target="DLvYoD4pX-AET4cQzhbd-7">
          <mxGeometry width="50" height="50" relative="1" as="geometry">
            <mxPoint x="400" y="290" as="sourcePoint" />
            <mxPoint x="450" y="240" as="targetPoint" />
          </mxGeometry>
        </mxCell>
        <mxCell id="DLvYoD4pX-AET4cQzhbd-20" value="" style="endArrow=none;html=1;rounded=0;exitX=0.5;exitY=0;exitDx=0;exitDy=0;entryX=0;entryY=0;entryDx=0;entryDy=0;" edge="1" parent="1" source="DLvYoD4pX-AET4cQzhbd-1" target="DLvYoD4pX-AET4cQzhbd-8">
          <mxGeometry width="50" height="50" relative="1" as="geometry">
            <mxPoint x="400" y="290" as="sourcePoint" />
            <mxPoint x="450" y="240" as="targetPoint" />
          </mxGeometry>
        </mxCell>
        <mxCell id="DLvYoD4pX-AET4cQzhbd-21" value="" style="endArrow=none;html=1;rounded=0;entryX=0.749;entryY=0.1;entryDx=0;entryDy=0;entryPerimeter=0;" edge="1" parent="1" target="DLvYoD4pX-AET4cQzhbd-10">
          <mxGeometry width="50" height="50" relative="1" as="geometry">
            <mxPoint x="170" y="280" as="sourcePoint" />
            <mxPoint x="450" y="240" as="targetPoint" />
          </mxGeometry>
        </mxCell>
        <mxCell id="DLvYoD4pX-AET4cQzhbd-22" value="&lt;font style=&quot;font-size: 16px;&quot;&gt;&lt;u&gt;Contact_Id&lt;/u&gt;&lt;/font&gt;" style="ellipse;whiteSpace=wrap;html=1;" vertex="1" parent="1">
          <mxGeometry x="770" y="80" width="100" height="60" as="geometry" />
        </mxCell>
        <mxCell id="DLvYoD4pX-AET4cQzhbd-23" value="&lt;font style=&quot;font-size: 13px;&quot;&gt;Contact_Name&lt;/font&gt;" style="ellipse;whiteSpace=wrap;html=1;" vertex="1" parent="1">
          <mxGeometry x="810" y="150" width="90" height="60" as="geometry" />
        </mxCell>
        <mxCell id="DLvYoD4pX-AET4cQzhbd-24" value="&lt;font style=&quot;font-size: 15px;&quot;&gt;Nick_name&lt;/font&gt;" style="ellipse;whiteSpace=wrap;html=1;" vertex="1" parent="1">
          <mxGeometry x="570" y="60" width="100" height="60" as="geometry" />
        </mxCell>
        <mxCell id="DLvYoD4pX-AET4cQzhbd-25" value="&lt;font style=&quot;font-size: 15px;&quot;&gt;Work&lt;/font&gt;" style="ellipse;whiteSpace=wrap;html=1;" vertex="1" parent="1">
          <mxGeometry x="500" y="125" width="100" height="50" as="geometry" />
        </mxCell>
        <mxCell id="DLvYoD4pX-AET4cQzhbd-26" value="&lt;font style=&quot;font-size: 16px;&quot;&gt;email&lt;/font&gt;" style="ellipse;whiteSpace=wrap;html=1;" vertex="1" parent="1">
          <mxGeometry x="490" y="190" width="100" height="60" as="geometry" />
        </mxCell>
        <mxCell id="DLvYoD4pX-AET4cQzhbd-27" value="&lt;font style=&quot;font-size: 16px;&quot;&gt;image&lt;/font&gt;" style="ellipse;whiteSpace=wrap;html=1;" vertex="1" parent="1">
          <mxGeometry x="790" y="220" width="90" height="50" as="geometry" />
        </mxCell>
        <mxCell id="DLvYoD4pX-AET4cQzhbd-28" value="&lt;font style=&quot;font-size: 17px;&quot;&gt;Description&lt;/font&gt;" style="ellipse;whiteSpace=wrap;html=1;" vertex="1" parent="1">
          <mxGeometry x="570" y="240" width="90" height="50" as="geometry" />
        </mxCell>
        <mxCell id="DLvYoD4pX-AET4cQzhbd-29" value="&lt;font style=&quot;font-size: 16px;&quot;&gt;Phone_No&lt;/font&gt;" style="ellipse;whiteSpace=wrap;html=1;" vertex="1" parent="1">
          <mxGeometry x="680" y="30" width="100" height="60" as="geometry" />
        </mxCell>
        <mxCell id="DLvYoD4pX-AET4cQzhbd-30" value="" style="endArrow=none;html=1;rounded=0;entryX=0.44;entryY=1.027;entryDx=0;entryDy=0;entryPerimeter=0;exitX=0.748;exitY=1.047;exitDx=0;exitDy=0;exitPerimeter=0;" edge="1" parent="1" source="DLvYoD4pX-AET4cQzhbd-24" target="DLvYoD4pX-AET4cQzhbd-29">
          <mxGeometry width="50" height="50" relative="1" as="geometry">
            <mxPoint x="400" y="270" as="sourcePoint" />
            <mxPoint x="450" y="220" as="targetPoint" />
            <Array as="points">
              <mxPoint x="740" y="280" />
            </Array>
          </mxGeometry>
        </mxCell>
        <mxCell id="DLvYoD4pX-AET4cQzhbd-31" value="" style="endArrow=none;html=1;rounded=0;entryX=0.5;entryY=0;entryDx=0;entryDy=0;exitX=1.008;exitY=0.74;exitDx=0;exitDy=0;exitPerimeter=0;" edge="1" parent="1" source="DLvYoD4pX-AET4cQzhbd-25" target="DLvYoD4pX-AET4cQzhbd-2">
          <mxGeometry width="50" height="50" relative="1" as="geometry">
            <mxPoint x="400" y="270" as="sourcePoint" />
            <mxPoint x="450" y="220" as="targetPoint" />
          </mxGeometry>
        </mxCell>
        <mxCell id="DLvYoD4pX-AET4cQzhbd-32" value="" style="endArrow=none;html=1;rounded=0;exitX=0;exitY=1;exitDx=0;exitDy=0;" edge="1" parent="1" source="DLvYoD4pX-AET4cQzhbd-22">
          <mxGeometry width="50" height="50" relative="1" as="geometry">
            <mxPoint x="400" y="270" as="sourcePoint" />
            <mxPoint x="740" y="280" as="targetPoint" />
            <Array as="points">
              <mxPoint x="760" y="210" />
            </Array>
          </mxGeometry>
        </mxCell>
        <mxCell id="DLvYoD4pX-AET4cQzhbd-33" value="" style="endArrow=none;html=1;rounded=0;entryX=1;entryY=0.5;entryDx=0;entryDy=0;exitX=1;exitY=0.5;exitDx=0;exitDy=0;" edge="1" parent="1" source="DLvYoD4pX-AET4cQzhbd-28" target="DLvYoD4pX-AET4cQzhbd-26">
          <mxGeometry width="50" height="50" relative="1" as="geometry">
            <mxPoint x="400" y="270" as="sourcePoint" />
            <mxPoint x="450" y="220" as="targetPoint" />
            <Array as="points">
              <mxPoint x="740" y="280" />
            </Array>
          </mxGeometry>
        </mxCell>
        <mxCell id="DLvYoD4pX-AET4cQzhbd-34" value="" style="endArrow=none;html=1;rounded=0;entryX=-0.013;entryY=0.653;entryDx=0;entryDy=0;entryPerimeter=0;exitX=0;exitY=0.5;exitDx=0;exitDy=0;" edge="1" parent="1" source="DLvYoD4pX-AET4cQzhbd-27" target="DLvYoD4pX-AET4cQzhbd-23">
          <mxGeometry width="50" height="50" relative="1" as="geometry">
            <mxPoint x="400" y="270" as="sourcePoint" />
            <mxPoint x="450" y="220" as="targetPoint" />
            <Array as="points">
              <mxPoint x="740" y="280" />
            </Array>
          </mxGeometry>
        </mxCell>
        <mxCell id="DLvYoD4pX-AET4cQzhbd-35" value="&lt;font style=&quot;font-size: 28px;&quot;&gt;&lt;b&gt;HAS&lt;/b&gt;&lt;/font&gt;" style="rhombus;whiteSpace=wrap;html=1;" vertex="1" parent="1">
          <mxGeometry x="390" y="330" width="160" height="130" as="geometry" />
        </mxCell>
        <mxCell id="DLvYoD4pX-AET4cQzhbd-36" value="" style="endArrow=none;html=1;rounded=0;exitX=0;exitY=0.5;exitDx=0;exitDy=0;entryX=1;entryY=1;entryDx=0;entryDy=0;" edge="1" parent="1" source="DLvYoD4pX-AET4cQzhbd-35" target="DLvYoD4pX-AET4cQzhbd-1">
          <mxGeometry width="50" height="50" relative="1" as="geometry">
            <mxPoint x="400" y="270" as="sourcePoint" />
            <mxPoint x="450" y="220" as="targetPoint" />
          </mxGeometry>
        </mxCell>
        <mxCell id="DLvYoD4pX-AET4cQzhbd-37" value="" style="endArrow=none;html=1;rounded=0;exitX=1;exitY=0.5;exitDx=0;exitDy=0;entryX=0;entryY=1;entryDx=0;entryDy=0;" edge="1" parent="1" source="DLvYoD4pX-AET4cQzhbd-35" target="DLvYoD4pX-AET4cQzhbd-2">
          <mxGeometry width="50" height="50" relative="1" as="geometry">
            <mxPoint x="400" y="270" as="sourcePoint" />
            <mxPoint x="450" y="220" as="targetPoint" />
          </mxGeometry>
        </mxCell>
      </root>
    </mxGraphModel>
  </diagram>
</mxfile>
